HIERARCHY
ROOT hip
{
  OFFSET 0 0 0
  CHANNELS 6 Xposition Yposition Zposition Zrotation Yrotation Xrotation
  JOINT abdomen
  {
    OFFSET 0 20.6881 -0.73152
    CHANNELS 3 Zrotation Xrotation Yrotation
    JOINT chest
    {
      OFFSET 0 11.7043 -0.48768
      CHANNELS 3 Zrotation Xrotation Yrotation
      JOINT neck
      {
        OFFSET 0 22.1894 -2.19456
        CHANNELS 3 Zrotation Xrotation Yrotation
        JOINT head
        {
          OFFSET -0.24384 7.07133 1.2192
          CHANNELS 3 Zrotation Xrotation Yrotation
          JOINT leftEye
          {
            OFFSET 4.14528 8.04674 8.04672
            CHANNELS 3 Zrotation Xrotation Yrotation
            End Site
            {
              OFFSET 1 0 0
            }
          }
          JOINT rightEye
          {
            OFFSET -3.6576 8.04674 8.04672
            CHANNELS 3 Zrotation Xrotation Yrotation
            End Site
            {
              OFFSET 1 0 0
            }
          }
        }
      }
      JOINT rCollar
      {
        OFFSET -2.68224 19.2634 -4.8768
        CHANNELS 3 Zrotation Xrotation Yrotation
        JOINT rShldr
        {
          OFFSET -8.77824 -1.95073 1.46304
          CHANNELS 3 Zrotation Xrotation Yrotation
          JOINT rForeArm
          {
            OFFSET -28.1742 -1.7115 0.48768
            CHANNELS 3 Zrotation Xrotation Yrotation
            JOINT rHand
            {
              OFFSET -22.5879 0.773209 7.07136
              CHANNELS 3 Zrotation Xrotation Yrotation
              JOINT rThumb1
              {
                OFFSET -1.2192 -0.487915 3.41376
                CHANNELS 3 Zrotation Xrotation Yrotation
                JOINT rThumb2
                {
                  OFFSET -3.37035 -0.52449 3.41376
                  CHANNELS 3 Zrotation Xrotation Yrotation
                  End Site
                  {
                    OFFSET -1.78271 -1.18214 1.43049
                  }
                }
              }
              JOINT rIndex1
              {
                OFFSET -7.75947 0.938293 5.60832
                CHANNELS 3 Zrotation Xrotation Yrotation
                JOINT rIndex2
                {
                  OFFSET -2.54057 -0.884171 1.56538
                  CHANNELS 3 Zrotation Xrotation Yrotation
                  End Site
                  {
                    OFFSET -1.62519 -0.234802 1.16502
                  }
                }
              }
              JOINT rMid1
              {
                OFFSET -8.24714 1.18213 3.41376
                CHANNELS 3 Zrotation Xrotation Yrotation
                JOINT rMid2
                {
                  OFFSET -3.10165 -0.590103 1.0647
                  CHANNELS 3 Zrotation Xrotation Yrotation
                  End Site
                  {
                    OFFSET -2.48547 -0.328903 0.83742
                  }
                }
              }
              JOINT rRing1
              {
                OFFSET -8.82822 0.546677 1.51678
                CHANNELS 3 Zrotation Xrotation Yrotation
                JOINT rRing2
                {
                  OFFSET -2.60934 -0.819778 -0.0198488
                  CHANNELS 3 Zrotation Xrotation Yrotation
                  End Site
                  {
                    OFFSET -2.33842 -0.294052 0.168128
                  }
                }
              }
              JOINT rPinky1
              {
                OFFSET -8.27202 -0.0477905 -0.4584
                CHANNELS 3 Zrotation Xrotation Yrotation
                JOINT rPinky2
                {
                  OFFSET -1.82734 -0.647385 -0.700984
                  CHANNELS 3 Zrotation Xrotation Yrotation
                  End Site
                  {
                    OFFSET -1.69225 -0.51767 -0.607171
                  }
                }
              }
            }
          }
        }
      }
      JOINT lCollar
      {
        OFFSET 2.68224 19.2634 -4.8768
        CHANNELS 3 Zrotation Xrotation Yrotation
        JOINT lShldr
        {
          OFFSET 8.77824 -1.95073 1.46304
          CHANNELS 3 Zrotation Xrotation Yrotation
          JOINT lForeArm
          {
            OFFSET 28.1742 -1.7115 0.48768
            CHANNELS 3 Zrotation Xrotation Yrotation
            JOINT lHand
            {
              OFFSET 22.5879 0.773209 7.07136
              CHANNELS 3 Zrotation Xrotation Yrotation
              JOINT lThumb1
              {
                OFFSET 1.2192 -0.487915 3.41376
                CHANNELS 3 Zrotation Xrotation Yrotation
                JOINT lThumb2
                {
                  OFFSET 3.37035 -0.52449 3.41376
                  CHANNELS 3 Zrotation Xrotation Yrotation
                  End Site
                  {
                    OFFSET 1.78271 -1.18214 1.43049
                  }
                }
              }
              JOINT lIndex1
              {
                OFFSET 7.75947 0.938293 5.60832
                CHANNELS 3 Zrotation Xrotation Yrotation
                JOINT lIndex2
                {
                  OFFSET 2.54057 -0.884171 1.56538
                  CHANNELS 3 Zrotation Xrotation Yrotation
                  End Site
                  {
                    OFFSET 1.62519 -0.234802 1.16502
                  }
                }
              }
              JOINT lMid1
              {
                OFFSET 8.24714 1.18213 3.41376
                CHANNELS 3 Zrotation Xrotation Yrotation
                JOINT lMid2
                {
                  OFFSET 3.10165 -0.590103 1.0647
                  CHANNELS 3 Zrotation Xrotation Yrotation
                  End Site
                  {
                    OFFSET 2.48547 -0.328903 0.83742
                  }
                }
              }
              JOINT lRing1
              {
                OFFSET 8.82822 0.546677 1.51678
                CHANNELS 3 Zrotation Xrotation Yrotation
                JOINT lRing2
                {
                  OFFSET 2.60934 -0.819778 -0.0198488
                  CHANNELS 3 Zrotation Xrotation Yrotation
                  End Site
                  {
                    OFFSET 2.33842 -0.294052 0.168128
                  }
                }
              }
              JOINT lPinky1
              {
                OFFSET 8.27202 -0.0477905 -0.4584
                CHANNELS 3 Zrotation Xrotation Yrotation
                JOINT lPinky2
                {
                  OFFSET 1.82734 -0.647385 -0.700984
                  CHANNELS 3 Zrotation Xrotation Yrotation
                  End Site
                  {
                    OFFSET 1.69225 -0.51767 -0.607171
                  }
                }
              }
            }
          }
        }
      }
    }
  }
  JOINT rButtock
  {
    OFFSET -8.77824 4.35084 1.2192
    CHANNELS 3 Zrotation Xrotation Yrotation
    JOINT rThigh
    {
      OFFSET 0 -1.70687 -2.19456
      CHANNELS 3 Zrotation Xrotation Yrotation
      JOINT rShin
      {
        OFFSET 0 -36.8199 0.73152
        CHANNELS 3 Zrotation Xrotation Yrotation
        JOINT rFoot
        {
          OFFSET 0.73152 -45.1104 -5.12064
          CHANNELS 3 Zrotation Xrotation Yrotation
          End Site
          {
            OFFSET -1.1221 -3.69964 12.103
          }
        }
      }
    }
  }
  JOINT lButtock
  {
    OFFSET 8.77824 4.35084 1.2192
    CHANNELS 3 Zrotation Xrotation Yrotation
    JOINT lThigh
    {
      OFFSET 0 -1.70687 -2.19456
      CHANNELS 3 Zrotation Xrotation Yrotation
      JOINT lShin
      {
        OFFSET 0 -36.8199 0.73152
        CHANNELS 3 Zrotation Xrotation Yrotation
        JOINT lFoot
        {
          OFFSET -0.73152 -45.1104 -5.12064
          CHANNELS 3 Zrotation Xrotation Yrotation
          End Site
          {
            OFFSET 1.1221 -3.69964 12.103
          }
        }
      }
    }
  }
}
MOTION
Frames:	10
Frame Time:	0.00833333
0.0 0.0 0.0 0.0 0.0 0.0 0.0 0.0 0.0 0.0 0.0 0.0 0.0 0.0 0.0 0.0 0.0 0.0 0.0 0.0 0.0 0.0 0.0 0.0 0.0 0.0 0.0 0.0 0.0 0.0 0.0 0.0 0.0 0.0 0.0 0.0 0.0 0.0 0.0 0.0 0.0 0.0 0.0 0.0 0.0 0.0 0.0 0.0 0.0 0.0 0.0 0.0 0.0 0.0 0.0 0.0 0.0 0.0 0.0 0.0 0.0 0.0 0.0 0.0 0.0 0.0 0.0 0.0 0.0 0.0 0.0 0.0 0.0 0.0 0.0 0.0 0.0 0.0 0.0 0.0 0.0 0.0 0.0 0.0 0.0 0.0 0.0 0.0 0.0 0.0 0.0 0.0 0.0 0.0 0.0 0.0 0.0 0.0 0.0 0.0 0.0 0.0 0.0 0.0 0.0 0.0 0.0 0.0 0.0 0.0 0.0 0.0 0.0 0.0 0.0 0.0 0.0 0.0 0.0 0.0 0.0 0.0 0.0 0.0 0.0 0.0 0.0 0.0 0.0 0.0 0.0 0.0
-72.3074 84.0997 -13.228699999999998 -0.0 -0.0 -0.0 -0.0 -4.771896 -180.0 0.0 -4.771896 180.0 12.082972 10.431627 104.176372 -7.135719 14.259514 -104.389741 0.0 0.0 0.0 0.0 0.0 0.0 -159.220516 -48.028485 170.415257 -1.876095 25.469733 24.768045 37.302772 87.962028 -33.920604 -5.831608 18.312152 0.307965 -5.433768 5.264911 1.077842 -124.076782 -19.19246 109.759594 -140.763228 1.380556 116.229033 -9.452474 45.399948 4.542028 -86.295205 60.96028 77.857271 -162.77462 -4.017343 146.1709 0.000474 0.063839 0.020056 -3.389532 29.345999 4.662193 14.474782 50.192359 11.632912 -16.733685 -29.293925 -16.715369 159.220516 -48.028485 -170.415257 1.876095 25.469733 -24.768045 -93.741657 89.392475 90.4085 5.267634 16.619818 -0.19669 172.355661 -10.035727 -89.938949 -134.023373 -54.461404 -94.745865 129.577218 16.761325 -108.78574 -33.296915 -45.015829 13.882125 8.41658 20.880424 -5.645309 166.225444 -5.122771 -144.54468 0.021291 -1.725169 0.542387 166.774387 -22.840146 -174.106338 -0.369105 0.970785 -0.340419 -12.224791 42.20055 -8.444127 -180.0 75.749642 -0.0 -180.0 73.473292 -180.0 -7.397059 -7.393404 -94.29247 -16.049709 -43.416996 -106.396149 -180.0 75.749642 -0.0 -180.0 73.473292 -180.0 7.397059 -7.393404 94.29247 16.049709 -43.416996 106.396149
-72.3266 84.0122 -13.430200000000001 -0.0 -0.0 -0.0 0.0 0.0 0.0 0.0 -0.0 -0.0 -8.06909 8.693804 -71.663951 10.772633 4.942713 71.812002 0.0 0.0 0.0 0.0 0.0 0.0 -80.1661 68.371792 83.260848 -156.024517 -0.048897 179.057507 10.415757 70.422561 -6.398509 -7.076477 21.94401 0.611899 -78.030619 38.689342 42.41267 -118.996399 -16.354036 79.052156 -27.608968 30.765951 20.255213 -172.141557 -13.64259 117.300073 34.587821 -70.943799 9.314143 -154.008811 19.098765 135.558681 -145.118942 0.185466 -179.186604 22.491753 39.867282 -4.519515 7.928213 24.811638 7.002569 -150.621016 13.069775 -142.761223 143.620413 38.233348 -148.080496 152.003497 -2.605773 -170.689436 -13.17397 1.597281 1.217405 16.33215 43.339627 -4.947694 121.36458 30.329582 -71.957921 0.660073 -28.212645 -25.068411 90.225558 41.072425 -75.796697 -6.928777 0.04259 14.79637 -68.983989 -80.15399 -40.578188 168.675379 -17.639932 -140.825962 145.121957 1.974539 179.748654 -16.016019 -30.95261 14.605989 136.9593 -9.523921 134.262679 -4.712932 -1.042583 1.138431 -180.0 75.749642 -0.0 -180.0 75.749642 -0.0 -3.117632 1.327455 -29.85905 142.233061 -17.083429 -25.887073 -180.0 75.749642 -0.0 -180.0 75.749642 -0.0 3.117632 1.327455 29.85905 -142.233061 -17.083429 25.887073
-72.3592 83.9313 -13.628199999999998 -0.0 -0.0 -0.0 0.0 0.0 0.0 0.0 -0.0 -0.0 -8.06909 8.693804 -71.663951 10.772633 4.942713 71.812002 0.0 0.0 0.0 0.0 0.0 0.0 -80.1661 68.371792 83.260848 -156.024517 -0.048897 179.057507 10.415757 70.422561 -6.398509 -7.076477 21.94401 0.611899 -78.030619 38.689342 42.41267 -118.996399 -16.354036 79.052156 -27.608968 30.765951 20.255213 -172.141557 -13.64259 117.300073 34.587821 -70.943799 9.314143 -154.008811 19.098765 135.558681 -145.118942 0.185466 -179.186604 22.491753 39.867282 -4.519515 7.928213 24.811638 7.002569 -150.621016 13.069775 -142.761223 143.620413 38.233348 -148.080496 152.003497 -2.605773 -170.689436 -13.17397 1.597281 1.217405 16.33215 43.339627 -4.947694 121.36458 30.329582 -71.957921 0.660073 -28.212645 -25.068411 90.225558 41.072425 -75.796697 -6.928777 0.04259 14.79637 -68.983989 -80.15399 -40.578188 168.675379 -17.639932 -140.825962 145.121957 1.974539 179.748654 -16.016019 -30.95261 14.605989 136.9593 -9.523921 134.262679 -4.712932 -1.042583 1.138431 -180.0 75.749642 -0.0 -180.0 75.749642 -0.0 -3.608266 1.750949 -35.499358 -76.523208 -45.645517 28.466451 -180.0 75.749642 -0.0 -180.0 75.749642 -0.0 3.608266 1.750949 35.499358 76.523208 -45.645517 -28.466451
-72.4131 83.8678 -13.797700000000003 -0.0 -0.0 -0.0 -0.0 -4.771896 -180.0 -0.0 -4.771896 180.0 0.245875 19.608241 -158.802917 7.579128 18.139248 157.548848 -0.0 -0.0 0.0 -0.0 -0.0 0.0 -155.504155 -3.514523 161.838528 29.24628 -32.959588 17.26958 177.694842 -7.204771 177.765704 -9.901705 29.565401 1.579556 -6.581133 6.344846 1.36571 56.095898 -69.216224 -6.773403 -145.90645 -7.259791 118.949872 -5.475117 41.845472 3.191104 78.537123 -80.919176 49.688177 5.260463 -5.904318 2.584472 -145.121957 1.974539 -179.748654 -65.976805 -77.60796 -97.684585 -113.837232 -39.284327 -111.847609 -113.500867 -43.138056 -114.62526 155.504155 -3.514523 -161.838528 -32.547804 -40.642676 -18.757899 -176.954916 -13.655523 -176.855965 10.544513 31.16734 -1.849164 89.136032 38.427358 -50.299234 155.164098 -32.095466 -80.397858 39.689489 37.280277 -30.590804 179.617165 -31.065557 -118.320351 160.826363 -7.141801 -143.31627 -145.417974 -74.793052 -110.511586 145.099691 -1.522044 178.64987 -21.585377 13.342495 7.132624 1.203484 -3.047547 1.116064 26.198613 -41.141649 24.433403 -0.0 0.0 -0.0 -0.0 -2.27635 -180.0 -7.080248 -6.369655 -103.605104 -147.329605 20.328153 82.111568 -0.0 0.0 -0.0 -0.0 -2.27635 -180.0 7.080248 -6.369655 103.605104 147.329605 20.328153 -82.111568
-72.4904 83.8323 -13.9466 -0.0 -0.0 -0.0 0.0 0.0 0.0 0.0 -0.0 0.0 -3.941986 17.932259 -132.771391 10.667824 15.013811 131.983833 -0.0 -0.0 0.0 -0.0 -0.0 0.0 -80.1661 68.371792 83.260848 16.632722 26.669544 0.704846 -6.202705 7.274601 -28.176637 149.035769 -53.767648 129.246447 66.257853 -46.842795 22.116955 -148.823954 -11.431518 120.99878 -140.763228 1.380556 116.229033 -169.324181 -48.986179 119.032716 -171.869892 -41.091283 145.160004 9.549136 -10.499671 1.054913 -0.014868 -1.323148 -0.415899 1.440635 -26.59007 -2.837922 -23.391137 -36.34947 -22.493225 1.565221 0.020391 1.449957 80.1661 68.371792 -83.260848 145.293804 -75.510173 167.208328 99.688474 73.26079 -84.772473 -53.998139 -67.100848 -40.304265 -1.600551 -1.586397 0.224241 124.919053 -16.652698 -112.097315 0.327682 0.529888 -0.186114 -0.247601 -0.420907 0.167876 -89.035113 -81.393384 -59.759886 172.900187 -28.427587 -140.528518 0.000473 -0.060845 0.019116 166.681641 -19.434384 -174.053615 145.173549 12.06758 141.82295 -47.401971 79.615688 8.715765 -0.0 0.0 -0.0 -0.0 -0.0 -0.0 7.066731 4.141724 76.966642 -151.730343 -27.681844 97.784354 -0.0 0.0 -0.0 -0.0 -0.0 -0.0 -7.066731 4.141724 -76.966642 151.730343 -27.681844 -97.784354
-72.6967 83.8533 -14.0231 -0.0 -0.0 -0.0 -0.0 -4.771896 -180.0 -0.0 -4.771896 180.0 0.245875 19.608241 -158.802917 7.579128 18.139248 157.548848 -0.0 -0.0 0.0 -0.0 -0.0 0.0 -155.504155 -3.514523 161.838528 29.24628 -32.959588 17.26958 177.694842 -7.204771 177.765704 -9.901705 29.565401 1.579556 -6.581133 6.344846 1.36571 56.095898 -69.216224 -6.773403 -145.90645 -7.259791 118.949872 -5.475117 41.845472 3.191104 78.537123 -80.919176 49.688177 5.260463 -5.904318 2.584472 -145.121957 1.974539 -179.748654 -65.976805 -77.60796 -97.684585 -113.837232 -39.284327 -111.847609 -113.500867 -43.138056 -114.62526 155.504155 -3.514523 -161.838528 -32.547804 -40.642676 -18.757899 -176.954916 -13.655523 -176.855965 10.544513 31.16734 -1.849164 89.136032 38.427358 -50.299234 155.164098 -32.095466 -80.397858 39.689489 37.280277 -30.590804 179.617165 -31.065557 -118.320351 160.826363 -7.141801 -143.31627 -145.417974 -74.793052 -110.511586 145.099691 -1.522044 178.64987 -21.585377 13.342495 7.132624 1.203484 -3.047547 1.116064 26.198613 -41.141649 24.433403 -0.0 0.0 -0.0 -0.0 -2.27635 -180.0 -7.438471 -7.594683 -92.506295 -142.06797 -39.999603 117.303345 -0.0 0.0 -0.0 -0.0 -2.27635 -180.0 7.438471 -7.594683 92.506295 142.06797 -39.999603 -117.303345
-73.0818 83.8987 -14.0667 -0.0 -0.0 -0.0 -0.0 -4.771896 -180.0 -0.0 -4.771896 180.0 0.245875 19.608241 -158.802917 7.579128 18.139248 157.548848 -0.0 -0.0 0.0 -0.0 -0.0 0.0 -155.504155 -3.514523 161.838528 29.24628 -32.959588 17.26958 177.694842 -7.204771 177.765704 -9.901705 29.565401 1.579556 -6.581133 6.344846 1.36571 56.095898 -69.216224 -6.773403 -145.90645 -7.259791 118.949872 -5.475117 41.845472 3.191104 78.537123 -80.919176 49.688177 5.260463 -5.904318 2.584472 -145.121957 1.974539 -179.748654 -65.976805 -77.60796 -97.684585 -113.837232 -39.284327 -111.847609 -113.500867 -43.138056 -114.62526 155.504155 -3.514523 -161.838528 -32.547804 -40.642676 -18.757899 -176.954916 -13.655523 -176.855965 10.544513 31.16734 -1.849164 89.136032 38.427358 -50.299234 155.164098 -32.095466 -80.397858 39.689489 37.280277 -30.590804 179.617165 -31.065557 -118.320351 160.826363 -7.141801 -143.31627 -145.417974 -74.793052 -110.511586 145.099691 -1.522044 178.64987 -21.585377 13.342495 7.132624 1.203484 -3.047547 1.116064 26.198613 -41.141649 24.433403 -0.0 0.0 -0.0 -0.0 -2.27635 -180.0 -7.080248 -6.369655 -103.605104 -147.329605 20.328153 82.111568 -0.0 0.0 -0.0 -0.0 -2.27635 -180.0 7.080248 -6.369655 103.605104 147.329605 20.328153 -82.111568
-73.3396 83.882 -14.1229 -0.0 -0.0 -0.0 0.0 0.0 0.0 0.0 -0.0 -0.0 -8.06909 8.693804 -71.663951 10.772633 4.942713 71.812002 0.0 0.0 0.0 0.0 0.0 0.0 -80.1661 68.371792 83.260848 -156.024517 -0.048897 179.057507 10.415757 70.422561 -6.398509 -7.076477 21.94401 0.611899 -78.030619 38.689342 42.41267 -118.996399 -16.354036 79.052156 -27.608968 30.765951 20.255213 -172.141557 -13.64259 117.300073 34.587821 -70.943799 9.314143 -154.008811 19.098765 135.558681 -145.118942 0.185466 -179.186604 22.491753 39.867282 -4.519515 7.928213 24.811638 7.002569 -150.621016 13.069775 -142.761223 143.620413 38.233348 -148.080496 152.003497 -2.605773 -170.689436 -13.17397 1.597281 1.217405 16.33215 43.339627 -4.947694 121.36458 30.329582 -71.957921 0.660073 -28.212645 -25.068411 90.225558 41.072425 -75.796697 -6.928777 0.04259 14.79637 -68.983989 -80.15399 -40.578188 168.675379 -17.639932 -140.825962 145.121957 1.974539 179.748654 -16.016019 -30.95261 14.605989 136.9593 -9.523921 134.262679 -4.712932 -1.042583 1.138431 -180.0 75.749642 -0.0 -180.0 75.749642 -0.0 -3.608266 1.750949 -35.499358 -76.523208 -45.645517 28.466451 -180.0 75.749642 -0.0 -180.0 75.749642 -0.0 3.608266 1.750949 35.499358 76.523208 -45.645517 -28.466451
-73.4037 83.8778 -14.172899999999998 -0.0 -0.0 -0.0 -0.0 -4.771896 -180.0 -0.0 -4.771896 180.0 0.245875 19.608241 -158.802917 7.579128 18.139248 157.548848 -0.0 -0.0 0.0 -0.0 -0.0 0.0 -155.504155 -3.514523 161.838528 29.24628 -32.959588 17.26958 177.694842 -7.204771 177.765704 -9.901705 29.565401 1.579556 -6.581133 6.344846 1.36571 56.095898 -69.216224 -6.773403 -145.90645 -7.259791 118.949872 -5.475117 41.845472 3.191104 78.537123 -80.919176 49.688177 5.260463 -5.904318 2.584472 -145.121957 1.974539 -179.748654 -65.976805 -77.60796 -97.684585 -113.837232 -39.284327 -111.847609 -113.500867 -43.138056 -114.62526 155.504155 -3.514523 -161.838528 -32.547804 -40.642676 -18.757899 -176.954916 -13.655523 -176.855965 10.544513 31.16734 -1.849164 89.136032 38.427358 -50.299234 155.164098 -32.095466 -80.397858 39.689489 37.280277 -30.590804 179.617165 -31.065557 -118.320351 160.826363 -7.141801 -143.31627 -145.417974 -74.793052 -110.511586 145.099691 -1.522044 178.64987 -21.585377 13.342495 7.132624 1.203484 -3.047547 1.116064 26.198613 -41.141649 24.433403 -0.0 0.0 -0.0 -0.0 -2.27635 -180.0 -7.438471 -7.594683 -92.506295 -142.06797 -39.999603 117.303345 -0.0 0.0 -0.0 -0.0 -2.27635 -180.0 7.438471 -7.594683 92.506295 142.06797 -39.999603 -117.303345
